<svg xmlns="http://www.w3.org/2000/svg" viewBox="0 0 24 24"><path fill="currentColor" fill-rule="nonzero" d="M12.4697 13.5303L5.46967 6.53033Q5.41744 6.4781 5.3764 6.41668 5.33536 6.35526 5.30709 6.28701 5.27882 6.21877 5.26441 6.14632 5.25 6.07387 5.25 6 5.25 5.92613 5.26441 5.85368 5.27882 5.78123 5.30709 5.71299 5.33536 5.64474 5.3764 5.58332 5.41744 5.5219 5.46967 5.46967 5.5219 5.41744 5.58332 5.3764 5.64474 5.33536 5.71299 5.30709 5.78123 5.27882 5.85368 5.26441 5.92613 5.25 6 5.25 6.07387 5.25 6.14632 5.26441 6.21877 5.27882 6.28701 5.30709 6.35526 5.33536 6.41668 5.3764 6.4781 5.41744 6.53033 5.46967L13.5303 12.4697Q13.5826 12.5219 13.6236 12.5833 13.6646 12.6447 13.6929 12.713 13.7212 12.7812 13.7356 12.8537 13.75 12.9261 13.75 13 13.75 13.0739 13.7356 13.1463 13.7212 13.2188 13.6929 13.287 13.6646 13.3553 13.6236 13.4167 13.5826 13.4781 13.5303 13.5303 13.4781 13.5826 13.4167 13.6236 13.3553 13.6646 13.287 13.6929 13.2188 13.7212 13.1463 13.7356 13.0739 13.75 13 13.75 12.9261 13.75 12.8537 13.7356 12.7812 13.7212 12.713 13.6929 12.6447 13.6646 12.5833 13.6236 12.5219 13.5826 12.4697 13.5303Z"/><path fill="currentColor" fill-rule="nonzero" d="M15.4731 18.6641L14.2313 18.5512 14.2309 18.5512Q10.7385 18.2337 10.3395 17.1314 9.9403 16.0292 12.4204 13.5492L12.4204 13.5492 13.5492 12.4204Q16.0292 9.9403 17.1315 10.3395 18.2337 10.7385 18.5512 14.2309L18.5512 14.2313 18.6641 15.4731 18.6642 15.4735Q18.8611 17.64 18.2505 18.2505 17.64 18.8611 15.4735 18.6642L15.4731 18.6641 15.4731 18.6641ZM15.6089 17.1703L15.6093 17.1703Q17.0761 17.3036 17.1899 17.1899 17.3036 17.0761 17.1703 15.6093L17.1703 15.6089 17.0574 14.3671 17.0573 14.3667Q16.8262 11.8243 16.6207 11.7499 16.4154 11.6755 14.6098 13.481L13.481 14.6098 13.481 14.6098Q11.6755 16.4154 11.7499 16.6208 11.8243 16.8262 14.3667 17.0573L14.3671 17.0574 15.6089 17.1703 15.6089 17.1703Z"/></svg>
