<svg xmlns="http://www.w3.org/2000/svg" viewBox="0 0 24 24"><path fill="currentColor" fill-rule="nonzero" d="M16.4396 3.82745Q14.5454 3.47953 12.96 4.57291 11.3746 5.66628 11.0267 7.56043 10.4887 10.4887 7.56046 11.0267 5.66628 11.3746 4.57291 12.96 3.47953 14.5454 3.82745 16.4396 4.17537 18.3337 5.7608 19.4271 7.34624 20.5204 9.2404 20.1725 13.4022 19.4081 16.4051 16.4051 19.4081 13.4022 20.1725 9.2404 20.5204 7.34624 19.4271 5.7608 18.3337 4.17537 16.4396 3.82745L16.4396 3.82745ZM16.7106 2.35213Q19.2158 2.8123 20.6619 4.90923 22.108 7.00614 21.6479 9.51139 20.799 14.1326 17.4658 17.4658 14.1326 20.799 9.51138 21.6479 7.00614 22.108 4.90923 20.6619 2.8123 19.2158 2.35213 16.7106 1.89196 14.2053 3.33808 12.1084 4.7842 10.0115 7.28942 9.55135 9.20028 9.20028 9.55134 7.28945 10.0115 4.7842 12.1084 3.33808 14.2053 1.89196 16.7106 2.35213L16.7106 2.35213Z"/><path fill="currentColor" fill-rule="nonzero" d="M11.5815 5.01135Q13.75 6.41759 13.75 8.99919 13.75 10.9667 12.3587 12.3579 10.9675 13.7492 8.99998 13.7492 6.41837 13.7492 5.01215 11.5807 4.97195 11.5187 4.94463 11.4501 4.9173 11.3814 4.90389 11.3088 4.89047 11.2361 4.89149 11.1623 4.89251 11.0884 4.90791 11.0162 4.92332 10.9439 4.95252 10.8761 4.98173 10.8082 5.02361 10.7474 5.06549 10.6865 5.11843 10.635 5.17138 10.5835 5.23336 10.5433 5.29533 10.5031 5.36396 10.4758 5.43259 10.4485 5.50523 10.4351 5.57787 10.4217 5.65173 10.4227 5.72559 10.4237 5.79784 10.4391 5.87008 10.4545 5.93793 10.4837 6.00578 10.5129 6.06663 10.5548 6.12748 10.5967 6.17899 10.6496 6.2305 10.7026 6.27069 10.7645 7.23345 12.2492 8.99998 12.2492 12.25 12.2492 12.25 8.99919 12.25 7.23266 10.7653 6.26989 10.7034 6.2297 10.6504 6.17819 10.5975 6.12668 10.5556 6.06583 10.5137 6.00498 10.4845 5.93713 10.4553 5.86928 10.4399 5.79703 10.4245 5.72479 10.4235 5.65093 10.4225 5.57707 10.4359 5.50443 10.4493 5.43179 10.4766 5.36316 10.5039 5.29453 10.5441 5.23255 10.5843 5.17058 10.6358 5.11763 10.6873 5.06468 10.7482 5.0228 10.809 4.98092 10.8769 4.95172 10.9447 4.92252 11.017 4.90711 11.0892 4.89171 11.1631 4.89069 11.237 4.88967 11.3096 4.90309 11.3822 4.9165 11.4509 4.94383 11.5195 4.97116 11.5815 5.01135Z"/></svg>
