<svg xmlns="http://www.w3.org/2000/svg" viewBox="0 0 24 24"><path fill="currentColor" fill-rule="nonzero" d="M15.2498 11Q15.2498 14.25 11.9998 14.25 10.6536 14.25 9.70171 13.2981 8.74982 12.3462 8.74982 11 8.74982 9.65381 9.70171 8.70191 10.6536 7.75 11.9998 7.75 13.346 7.75 14.2979 8.7019 15.2498 9.65381 15.2498 11ZM13.7498 11Q13.7498 10.2751 13.2372 9.76256 12.7247 9.25 11.9998 9.25 11.2749 9.25 10.7624 9.76256 10.2498 10.2751 10.2498 11 10.2498 12.75 11.9998 12.75 12.7247 12.75 13.2372 12.2374 13.7498 11.7249 13.7498 11Z"/><path fill="currentColor" fill-rule="nonzero" d="M21.25 13L21.25 5.92705Q21.25 5.49781 20.9109 5.3927 18.837 4.75 16 4.75 14.3643 4.75 11.9816 5.19709 7.83939 5.97432 3.732 5.15927 3.34948 5.08336 3.04473 5.32391 2.75 5.55655 2.75 5.92116L2.75 15.9382Q2.75 16.5241 3.30629 16.6468 7.62147 17.5984 11.7049 16.8322 12.4731 16.688 12.8793 16.6218 12.9522 16.6099 13.026 16.6124 13.0998 16.615 13.1717 16.6319 13.2436 16.6488 13.3109 16.6795 13.3781 16.7101 13.438 16.7532 13.498 16.7964 13.5484 16.8504 13.5988 16.9044 13.6377 16.9672 13.6766 17.03 13.7024 17.0992 13.7283 17.1684 13.7402 17.2413 13.7521 17.3142 13.7495 17.388 13.747 17.4618 13.7301 17.5337 13.7132 17.6056 13.6825 17.6729 13.6519 17.7401 13.6088 17.8 13.5656 17.86 13.5116 17.9104 13.4576 17.9608 13.3948 17.9997 13.332 18.0386 13.2628 18.0644 13.1936 18.0903 13.1207 18.1022 12.7322 18.1656 11.9815 18.3064 7.59731 19.1291 2.98331 18.1116 1.25 17.7294 1.25 15.9382L1.25 5.92116Q1.25 4.82958 2.11536 4.14651 2.96302 3.47741 4.02396 3.68795 7.84734 4.44665 11.7049 3.72282 14.2248 3.25 16 3.25 19.0641 3.25 21.3549 3.95994 22.75 4.39232 22.75 5.92705L22.75 13Q22.75 13.0739 22.7356 13.1463 22.7212 13.2188 22.6929 13.287 22.6646 13.3553 22.6236 13.4167 22.5826 13.4781 22.5303 13.5303 22.4781 13.5826 22.4167 13.6236 22.3553 13.6646 22.287 13.6929 22.2188 13.7212 22.1463 13.7356 22.0739 13.75 22 13.75 21.9261 13.75 21.8537 13.7356 21.7812 13.7212 21.713 13.6929 21.6447 13.6646 21.5833 13.6236 21.5219 13.5826 21.4697 13.5303 21.4174 13.4781 21.3764 13.4167 21.3354 13.3553 21.3071 13.287 21.2788 13.2188 21.2644 13.1463 21.25 13.0739 21.25 13Z"/><path fill="currentColor" fill-rule="nonzero" d="M2 7.25Q4.83321 7.25 5.18583 4.65325 5.19577 4.58005 5.2198 4.5102 5.24383 4.44035 5.28102 4.37653 5.31821 4.31271 5.36715 4.25737 5.41608 4.20203 5.47486 4.1573 5.53365 4.11257 5.60003 4.08017 5.66641 4.04777 5.73784 4.02894 5.80927 4.01011 5.883 4.00558 5.95673 4.00105 6.02993 4.01099 6.10312 4.02093 6.17298 4.04496 6.24283 4.06899 6.30665 4.10618 6.37047 4.14337 6.42581 4.19231 6.48115 4.24124 6.52588 4.30002 6.57061 4.35881 6.60301 4.42519 6.63541 4.49157 6.65424 4.563 6.67306 4.63443 6.6776 4.70816 6.68213 4.78189 6.67219 4.85509 6.46159 6.40596 5.09854 7.5671 3.70995 8.75 2 8.75 1.92613 8.75 1.85368 8.73559 1.78123 8.72118 1.71299 8.69291 1.64474 8.66464 1.58332 8.6236 1.5219 8.58256 1.46967 8.53033 1.41744 8.4781 1.3764 8.41668 1.33536 8.35526 1.30709 8.28701 1.27882 8.21877 1.26441 8.14632 1.25 8.07387 1.25 8 1.25 7.92613 1.26441 7.85368 1.27882 7.78123 1.30709 7.71299 1.33536 7.64474 1.3764 7.58332 1.41744 7.5219 1.46967 7.46967 1.5219 7.41744 1.58332 7.3764 1.64474 7.33536 1.71299 7.30709 1.78123 7.27882 1.85368 7.26441 1.92613 7.25 2 7.25ZM19.2505 4.5Q19.2505 5.73167 20.1594 6.74995 21.0243 7.71899 22 7.71899 22.0739 7.71899 22.1463 7.7334 22.2188 7.74781 22.287 7.77608 22.3553 7.80435 22.4167 7.84539 22.4781 7.88643 22.5303 7.93866 22.5826 7.99089 22.6236 8.05231 22.6646 8.11373 22.6929 8.18198 22.7212 8.25022 22.7356 8.32267 22.75 8.39512 22.75 8.46899 22.75 8.54286 22.7356 8.61531 22.7212 8.68776 22.6929 8.756 22.6646 8.82425 22.6236 8.88567 22.5826 8.94709 22.5303 8.99932 22.4781 9.05155 22.4167 9.09259 22.3553 9.13363 22.287 9.1619 22.2188 9.19017 22.1463 9.20458 22.0739 9.21899 22 9.21899 20.3525 9.21899 19.0403 7.74877 17.7505 6.30372 17.7505 4.5 17.7505 4.42613 17.7649 4.35368 17.7793 4.28123 17.8076 4.21299 17.8359 4.14474 17.8769 4.08332 17.9179 4.0219 17.9702 3.96967 18.0224 3.91744 18.0838 3.8764 18.1452 3.83536 18.2135 3.80709 18.2817 3.77882 18.3542 3.76441 18.4266 3.75 18.5005 3.75 18.5744 3.75 18.6468 3.76441 18.7193 3.77882 18.7875 3.80709 18.8558 3.83536 18.9172 3.8764 18.9786 3.91744 19.0308 3.96967 19.0831 4.0219 19.1241 4.08332 19.1651 4.14474 19.1934 4.21299 19.2217 4.28123 19.2361 4.35368 19.2505 4.42613 19.2505 4.5ZM5.25049 17.4961Q5.25049 14.2461 2.00049 14.2461 1.92662 14.2461 1.85417 14.2317 1.78172 14.2173 1.71348 14.189 1.64523 14.1607 1.58381 14.1197 1.52239 14.0787 1.47016 14.0264 1.41793 13.9742 1.37689 13.9128 1.33585 13.8514 1.30758 13.7831 1.27931 13.7149 1.2649 13.6424 1.25049 13.57 1.25049 13.4961 1.25049 13.4222 1.2649 13.3498 1.27931 13.2773 1.30758 13.2091 1.33585 13.1408 1.37689 13.0794 1.41793 13.018 1.47016 12.9658 1.52239 12.9135 1.58381 12.8725 1.64523 12.8315 1.71348 12.8032 1.78172 12.7749 1.85417 12.7605 1.92662 12.7461 2.00049 12.7461 3.968 12.7461 5.35925 14.1374 6.75049 15.5286 6.75049 17.4961 6.75049 17.57 6.73608 17.6424 6.72167 17.7149 6.6934 17.7831 6.66513 17.8514 6.62409 17.9128 6.58305 17.9742 6.53082 18.0264 6.47859 18.0787 6.41717 18.1197 6.35575 18.1607 6.2875 18.189 6.21926 18.2173 6.14681 18.2317 6.07436 18.2461 6.00049 18.2461 5.92662 18.2461 5.85417 18.2317 5.78172 18.2173 5.71348 18.189 5.64523 18.1607 5.58381 18.1197 5.52239 18.0787 5.47016 18.0264 5.41793 17.9742 5.37689 17.9128 5.33585 17.8514 5.30758 17.7831 5.27931 17.7149 5.2649 17.6424 5.25049 17.57 5.25049 17.4961Z"/><path fill="currentColor" fill-rule="nonzero" d="M19.75 14L19.75 20Q19.75 20.0739 19.7356 20.1463 19.7212 20.2188 19.6929 20.287 19.6646 20.3553 19.6236 20.4167 19.5826 20.4781 19.5303 20.5303 19.4781 20.5826 19.4167 20.6236 19.3553 20.6646 19.287 20.6929 19.2188 20.7212 19.1463 20.7356 19.0739 20.75 19 20.75 18.9261 20.75 18.8537 20.7356 18.7812 20.7212 18.713 20.6929 18.6447 20.6646 18.5833 20.6236 18.5219 20.5826 18.4697 20.5303 18.4174 20.4781 18.3764 20.4167 18.3354 20.3553 18.3071 20.287 18.2788 20.2188 18.2644 20.1463 18.25 20.0739 18.25 20L18.25 14Q18.25 13.9261 18.2644 13.8537 18.2788 13.7812 18.3071 13.713 18.3354 13.6447 18.3764 13.5833 18.4174 13.5219 18.4697 13.4697 18.5219 13.4174 18.5833 13.3764 18.6447 13.3354 18.713 13.3071 18.7812 13.2788 18.8537 13.2644 18.9261 13.25 19 13.25 19.0739 13.25 19.1463 13.2644 19.2188 13.2788 19.287 13.3071 19.3553 13.3354 19.4167 13.3764 19.4781 13.4174 19.5303 13.4697 19.5826 13.5219 19.6236 13.5833 19.6646 13.6447 19.6929 13.713 19.7212 13.7812 19.7356 13.8537 19.75 13.9261 19.75 14ZM16 16.25L22 16.25Q22.0739 16.25 22.1463 16.2644 22.2188 16.2788 22.287 16.3071 22.3553 16.3354 22.4167 16.3764 22.4781 16.4174 22.5303 16.4697 22.5826 16.5219 22.6236 16.5833 22.6646 16.6447 22.6929 16.713 22.7212 16.7812 22.7356 16.8537 22.75 16.9261 22.75 17 22.75 17.0739 22.7356 17.1463 22.7212 17.2188 22.6929 17.287 22.6646 17.3553 22.6236 17.4167 22.5826 17.4781 22.5303 17.5303 22.4781 17.5826 22.4167 17.6236 22.3553 17.6646 22.287 17.6929 22.2188 17.7212 22.1463 17.7356 22.0739 17.75 22 17.75L16 17.75Q15.9261 17.75 15.8537 17.7356 15.7812 17.7212 15.713 17.6929 15.6447 17.6646 15.5833 17.6236 15.5219 17.5826 15.4697 17.5303 15.4174 17.4781 15.3764 17.4167 15.3354 17.3553 15.3071 17.287 15.2788 17.2188 15.2644 17.1463 15.25 17.0739 15.25 17 15.25 16.9261 15.2644 16.8537 15.2788 16.7812 15.3071 16.713 15.3354 16.6447 15.3764 16.5833 15.4174 16.5219 15.4697 16.4697 15.5219 16.4174 15.5833 16.3764 15.6447 16.3354 15.713 16.3071 15.7812 16.2788 15.8537 16.2644 15.9261 16.25 16 16.25Z"/></svg>
