<svg xmlns="http://www.w3.org/2000/svg" viewBox="0 0 24 24"><path fill="currentColor" fill-rule="nonzero" d="M9.75 5.5L9.75 2Q9.75 1.92613 9.76441 1.85368 9.77882 1.78123 9.80709 1.71299 9.83536 1.64474 9.8764 1.58332 9.91744 1.5219 9.96967 1.46967 10.0219 1.41744 10.0833 1.3764 10.1447 1.33536 10.213 1.30709 10.2812 1.27882 10.3537 1.26441 10.4261 1.25 10.5 1.25 10.5739 1.25 10.6463 1.26441 10.7188 1.27882 10.787 1.30709 10.8553 1.33536 10.9167 1.3764 10.9781 1.41744 11.0303 1.46967 11.0826 1.5219 11.1236 1.58332 11.1646 1.64474 11.1929 1.71299 11.2212 1.78123 11.2356 1.85368 11.25 1.92613 11.25 2L11.25 5.5Q11.25 5.57387 11.2356 5.64632 11.2212 5.71877 11.1929 5.78701 11.1646 5.85526 11.1236 5.91668 11.0826 5.9781 11.0303 6.03033 10.9781 6.08256 10.9167 6.1236 10.8553 6.16464 10.787 6.19291 10.7188 6.22118 10.6463 6.23559 10.5739 6.25 10.5 6.25 10.4261 6.25 10.3537 6.23559 10.2812 6.22118 10.213 6.19291 10.1447 6.16464 10.0833 6.1236 10.0219 6.08256 9.96967 6.03033 9.91744 5.9781 9.8764 5.91668 9.83536 5.85526 9.80709 5.78701 9.77882 5.71877 9.76441 5.64632 9.75 5.57387 9.75 5.5ZM9.75 12L9.75 9Q9.75 8.92613 9.76441 8.85368 9.77882 8.78123 9.80709 8.71299 9.83536 8.64474 9.8764 8.58332 9.91744 8.5219 9.96967 8.46967 10.0219 8.41744 10.0833 8.3764 10.1447 8.33536 10.213 8.30709 10.2812 8.27882 10.3537 8.26441 10.4261 8.25 10.5 8.25 10.5739 8.25 10.6463 8.26441 10.7188 8.27882 10.787 8.30709 10.8553 8.33536 10.9167 8.3764 10.9781 8.41744 11.0303 8.46967 11.0826 8.5219 11.1236 8.58332 11.1646 8.64474 11.1929 8.71299 11.2212 8.78123 11.2356 8.85368 11.25 8.92613 11.25 9L11.25 12Q11.25 12.0739 11.2356 12.1463 11.2212 12.2188 11.1929 12.287 11.1646 12.3553 11.1236 12.4167 11.0826 12.4781 11.0303 12.5303 10.9781 12.5826 10.9167 12.6236 10.8553 12.6646 10.787 12.6929 10.7188 12.7212 10.6463 12.7356 10.5739 12.75 10.5 12.75 10.4261 12.75 10.3537 12.7356 10.2812 12.7212 10.213 12.6929 10.1447 12.6646 10.0833 12.6236 10.0219 12.5826 9.96967 12.5303 9.91744 12.4781 9.8764 12.4167 9.83536 12.3553 9.80709 12.287 9.77882 12.2188 9.76441 12.1463 9.75 12.0739 9.75 12Z"/><path fill="currentColor" fill-rule="nonzero" d="M10.5 21.25Q17.25 21.25 17.25 12 17.25 7.57329 15.8626 5.33657 14.2583 2.75 10.5 2.75 3.75 2.75 3.75 12 3.75 21.25 10.5 21.25ZM10.5 22.75Q2.25 22.75 2.25 12 2.25 1.25 10.5 1.25 15.093 1.25 17.1374 4.54592 18.75 7.14585 18.75 12 18.75 22.75 10.5 22.75Z"/><path fill="currentColor" fill-rule="nonzero" d="M18 12.75L3 12.75Q2.92613 12.75 2.85368 12.7356 2.78123 12.7212 2.71299 12.6929 2.64474 12.6646 2.58332 12.6236 2.5219 12.5826 2.46967 12.5303 2.41744 12.4781 2.3764 12.4167 2.33536 12.3553 2.30709 12.287 2.27882 12.2188 2.26441 12.1463 2.25 12.0739 2.25 12 2.25 11.9261 2.26441 11.8537 2.27882 11.7812 2.30709 11.713 2.33536 11.6447 2.3764 11.5833 2.41744 11.5219 2.46967 11.4697 2.5219 11.4174 2.58332 11.3764 2.64474 11.3354 2.71299 11.3071 2.78123 11.2788 2.85368 11.2644 2.92613 11.25 3 11.25L18 11.25Q18.0739 11.25 18.1463 11.2644 18.2188 11.2788 18.287 11.3071 18.3553 11.3354 18.4167 11.3764 18.4781 11.4174 18.5303 11.4697 18.5826 11.5219 18.6236 11.5833 18.6646 11.6447 18.6929 11.713 18.7212 11.7812 18.7356 11.8537 18.75 11.9261 18.75 12 18.75 12.0739 18.7356 12.1463 18.7212 12.2188 18.6929 12.287 18.6646 12.3553 18.6236 12.4167 18.5826 12.4781 18.5303 12.5303 18.4781 12.5826 18.4167 12.6236 18.3553 12.6646 18.287 12.6929 18.2188 12.7212 18.1463 12.7356 18.0739 12.75 18 12.75Z"/><path fill="currentColor" fill-rule="nonzero" d="M18.287 2.93472L18.6681 1.76726Q18.691 1.69704 18.7272 1.63264 18.7634 1.56824 18.8115 1.51213 18.8595 1.45603 18.9176 1.41038 18.9757 1.36472 19.0415 1.33128 19.1074 1.29783 19.1785 1.27788 19.2496 1.25793 19.3233 1.25223 19.3969 1.24654 19.4703 1.25532 19.5436 1.2641 19.6138 1.28703 19.6841 1.30995 19.7485 1.34613 19.8129 1.38231 19.869 1.43036 19.9251 1.47841 19.9707 1.53649 20.0164 1.59456 20.0498 1.66042 20.0833 1.72629 20.1032 1.79741 20.1232 1.86853 20.1289 1.94218 20.1346 2.01583 20.1258 2.08917 20.117 2.16252 20.0941 2.23274L19.713 3.4002Q19.6901 3.47042 19.6539 3.53482 19.6177 3.59922 19.5696 3.65533 19.5216 3.71143 19.4635 3.75708 19.4054 3.80273 19.3396 3.83618 19.2737 3.86963 19.2026 3.88958 19.1315 3.90953 19.0578 3.91523 18.9842 3.92092 18.9108 3.91214 18.8375 3.90336 18.7673 3.88043 18.697 3.85751 18.6326 3.82133 18.5682 3.78515 18.5121 3.7371 18.456 3.68905 18.4104 3.63097 18.3647 3.5729 18.3313 3.50704 18.2978 3.44117 18.2779 3.37005 18.2579 3.29893 18.2522 3.22528 18.2465 3.15163 18.2553 3.07829 18.2641 3.00494 18.287 2.93472ZM20.262 4.87609L21.2907 5.30863Q21.3588 5.33726 21.42 5.37863 21.4812 5.41999 21.5331 5.4725 21.5851 5.52501 21.6258 5.58665 21.6665 5.64829 21.6944 5.71668 21.7223 5.78508 21.7364 5.8576 21.7504 5.93013 21.75 6.004 21.7496 6.07786 21.7348 6.15024 21.72 6.22261 21.6914 6.2907 21.6627 6.3588 21.6214 6.41999 21.58 6.48119 21.5275 6.53315 21.475 6.5851 21.4133 6.62581 21.3517 6.66652 21.2833 6.69443 21.2149 6.72233 21.1424 6.73636 21.0699 6.75038 20.996 6.74999 20.9221 6.7496 20.8498 6.7348 20.7774 6.72 20.7093 6.69137L19.6806 6.25883Q19.6125 6.2302 19.5513 6.18883 19.4901 6.14747 19.4381 6.09496 19.3862 6.04244 19.3455 5.98081 19.3048 5.91917 19.2769 5.85077 19.249 5.78238 19.2349 5.70985 19.2209 5.63733 19.2213 5.56346 19.2217 5.48959 19.2365 5.41722 19.2513 5.34485 19.2799 5.27676 19.3086 5.20866 19.3499 5.14746 19.3913 5.08626 19.4438 5.03431 19.4963 4.98236 19.558 4.94165 19.6196 4.90093 19.688 4.87303 19.7564 4.84513 19.8289 4.8311 19.9014 4.81708 19.9753 4.81747 20.0492 4.81786 20.1215 4.83266 20.1939 4.84746 20.262 4.87609Z"/><path fill="currentColor" fill-rule="nonzero" d="M8.25 7Q8.25 6.1519 8.38321 5.83031 8.6606 5.1606 9.33032 4.88321 9.65191 4.75 10.5 4.75 11.3481 4.75 11.6697 4.88319 12.3394 5.16063 12.6168 5.8303 12.75 6.15194 12.75 7L12.75 7 12.75 7.5Q12.75 8.34806 12.6168 8.66963 12.3394 9.33937 11.6697 9.61678 11.3481 9.75 10.5 9.75L10.5 9.75Q9.65191 9.75 9.33031 9.61679 8.6606 9.3394 8.38321 8.66968 8.25 8.34809 8.25 7.5L8.25 7ZM9.75 7L9.75 7.5Q9.75 8.04973 9.76904 8.09568 9.80866 8.19134 9.90433 8.23097 9.95027 8.25 10.5 8.25L10.5 8.25Q11.0497 8.25 11.0957 8.23098 11.1914 8.19134 11.231 8.09573 11.25 8.04976 11.25 7.5L11.25 7 11.25 7Q11.25 6.45024 11.231 6.40434 11.1914 6.30866 11.0957 6.26905 11.0497 6.25 10.5 6.25 9.95027 6.25 9.90432 6.26903 9.80866 6.30866 9.76903 6.40433 9.75 6.45028 9.75 7Z"/></svg>
